<svg width="40" height="29" viewBox="0 0 40 29" fill="none" xmlns="http://www.w3.org/2000/svg">
<g id="Group 8">
<path id="Union" fill-rule="evenodd" clip-rule="evenodd" d="M19.7314 11.5497C19.7314 11.5497 16.2507 8.08473 9.27344 6.93498C9.27344 6.93498 11.762 0.79248 19.7314 0.79248C27.7009 0.79248 30.1894 6.93498 30.1894 6.93498C23.2122 8.08473 19.7314 11.5497 19.7314 11.5497Z" fill="white"/>
<path id="Vector 17" d="M17.7008 11.7553C12.4403 17.0158 14.3618 22.4653 14.3618 22.4653H0.28125C0.28125 7.40833 17.7008 11.7553 17.7008 11.7553Z" fill="white"/>
<path id="Vector 18" d="M21.9711 11.77C27.2316 17.0305 25.3101 22.48 25.3101 22.48H39.3906C39.3906 7.42298 21.9711 11.77 21.9711 11.77Z" fill="white"/>
<path id="Union_2" fill-rule="evenodd" clip-rule="evenodd" d="M19.6837 12.6113C19.1026 13.047 13.8197 17.2293 17.5298 22.638H17.5897C17.47 22.9717 17.4037 23.3391 17.4037 23.7248C17.4037 24.8752 17.993 25.8619 18.8322 26.2814L19.7347 28.1665L20.6373 26.2814C21.4764 25.8619 22.0657 24.8752 22.0657 23.7248C22.0657 23.3391 21.9995 22.9717 21.8797 22.638H21.8887C25.5988 17.2293 20.3159 13.047 19.7348 12.6113V12.5737C19.7348 12.5737 19.726 12.58 19.7092 12.5923C19.6925 12.58 19.6837 12.5737 19.6837 12.5737V12.6113Z" fill="white"/>
</g>
</svg>
