<svg width="79" height="78" viewBox="0 0 79 78" fill="none" xmlns="http://www.w3.org/2000/svg">
<circle cx="39.6" cy="39" r="37.7" stroke="#264E26" stroke-width="2.6"/>
<path fill-rule="evenodd" clip-rule="evenodd" d="M28.258 23.7581C28.3713 23.6446 28.5057 23.5545 28.6538 23.4931C28.8019 23.4316 28.9606 23.4 29.1209 23.4C29.2812 23.4 29.44 23.4316 29.588 23.4931C29.7361 23.5545 29.8706 23.6446 29.9838 23.7581L44.6088 38.3831C44.7223 38.4963 44.8123 38.6308 44.8738 38.7788C44.9352 38.9269 44.9669 39.0856 44.9669 39.2459C44.9669 39.4062 44.9352 39.565 44.8738 39.713C44.8123 39.8611 44.7223 39.9956 44.6088 40.1088L29.9838 54.7338C29.7549 54.9627 29.4446 55.0912 29.1209 55.0912C28.7973 55.0912 28.4869 54.9627 28.258 54.7338C28.0292 54.505 27.9006 54.1946 27.9006 53.8709C27.9006 53.5473 28.0292 53.2369 28.258 53.0081L42.0226 39.2459L28.258 25.4838C28.1445 25.3706 28.0545 25.2361 27.9931 25.088C27.9316 24.94 27.9 24.7812 27.9 24.6209C27.9 24.4606 27.9316 24.3019 27.9931 24.1538C28.0545 24.0058 28.1445 23.8713 28.258 23.7581Z" fill="#517151"/>
<path fill-rule="evenodd" clip-rule="evenodd" d="M38.008 23.7581C38.1213 23.6446 38.2557 23.5545 38.4038 23.4931C38.5519 23.4316 38.7106 23.4 38.8709 23.4C39.0312 23.4 39.19 23.4316 39.338 23.4931C39.4861 23.5545 39.6206 23.6446 39.7338 23.7581L54.3588 38.3831C54.4723 38.4963 54.5623 38.6308 54.6238 38.7788C54.6852 38.9269 54.7169 39.0856 54.7169 39.2459C54.7169 39.4062 54.6852 39.565 54.6238 39.713C54.5623 39.8611 54.4723 39.9956 54.3588 40.1088L39.7338 54.7338C39.5049 54.9627 39.1946 55.0912 38.8709 55.0912C38.5473 55.0912 38.2369 54.9627 38.008 54.7338C37.7792 54.505 37.6506 54.1946 37.6506 53.8709C37.6506 53.5473 37.7792 53.2369 38.008 53.0081L51.7726 39.2459L38.008 25.4838C37.8945 25.3706 37.8045 25.2361 37.7431 25.088C37.6816 24.94 37.65 24.7812 37.65 24.6209C37.65 24.4606 37.6816 24.3019 37.7431 24.1538C37.8045 24.0058 37.8945 23.8713 38.008 23.7581Z" fill="#517151"/>
</svg>
