<svg width="240" height="78" viewBox="0 0 240 78" fill="none" xmlns="http://www.w3.org/2000/svg">
<rect x="0.299988" width="239" height="78" rx="39" fill="#264E26"/>
<path d="M39.9825 50.695C38.2492 50.695 36.6458 50.4133 35.1725 49.85C33.7208 49.265 32.4533 48.4525 31.37 47.4125C30.3083 46.3725 29.4742 45.1483 28.8675 43.74C28.2825 42.3317 27.99 40.7933 27.99 39.125C27.99 37.4567 28.2825 35.9183 28.8675 34.51C29.4742 33.1017 30.3192 31.8775 31.4025 30.8375C32.4858 29.7975 33.7533 28.9958 35.205 28.4325C36.6783 27.8475 38.2817 27.555 40.015 27.555C41.7483 27.555 43.33 27.8258 44.76 28.3675C46.2117 28.9092 47.4467 29.7325 48.465 30.8375L46.97 32.365C46.0167 31.4117 44.9658 30.7292 43.8175 30.3175C42.6692 29.9058 41.4342 29.7 40.1125 29.7C38.7042 29.7 37.4042 29.9383 36.2125 30.415C35.0425 30.87 34.0133 31.5308 33.125 32.3975C32.2583 33.2425 31.5758 34.2392 31.0775 35.3875C30.6008 36.5142 30.3625 37.76 30.3625 39.125C30.3625 40.4683 30.6008 41.7142 31.0775 42.8625C31.5758 44.0108 32.2583 45.0183 33.125 45.885C34.0133 46.73 35.0425 47.3908 36.2125 47.8675C37.4042 48.3225 38.6933 48.55 40.08 48.55C41.38 48.55 42.6042 48.355 43.7525 47.965C44.9225 47.575 45.995 46.9142 46.97 45.9825L48.335 47.8025C47.2517 48.7558 45.9842 49.4817 44.5325 49.98C43.0808 50.4567 41.5642 50.695 39.9825 50.695ZM46.0275 47.51V39.125H48.335V47.8025L46.0275 47.51ZM61.9017 50.6625C60.125 50.6625 58.565 50.2942 57.2217 49.5575C55.8784 48.7992 54.8275 47.77 54.0692 46.47C53.3109 45.1483 52.9317 43.6425 52.9317 41.9525C52.9317 40.2625 53.2892 38.7675 54.0042 37.4675C54.7409 36.1675 55.7375 35.1492 56.9942 34.4125C58.2725 33.6542 59.7025 33.275 61.2842 33.275C62.8875 33.275 64.3067 33.6433 65.5417 34.38C66.7984 35.095 67.7842 36.1133 68.4992 37.435C69.2142 38.735 69.5717 40.2408 69.5717 41.9525C69.5717 42.0608 69.5609 42.18 69.5392 42.31C69.5392 42.4183 69.5392 42.5375 69.5392 42.6675H54.6867V40.945H68.3042L67.3942 41.6275C67.3942 40.3925 67.1234 39.2983 66.5817 38.345C66.0617 37.37 65.3467 36.6117 64.4367 36.07C63.5267 35.5283 62.4759 35.2575 61.2842 35.2575C60.1142 35.2575 59.0634 35.5283 58.1317 36.07C57.2 36.6117 56.4742 37.37 55.9542 38.345C55.4342 39.32 55.1742 40.4358 55.1742 41.6925V42.05C55.1742 43.35 55.4559 44.4983 56.0192 45.495C56.6042 46.47 57.4059 47.2392 58.4242 47.8025C59.4642 48.3442 60.645 48.615 61.9667 48.615C63.0067 48.615 63.9709 48.4308 64.8592 48.0625C65.7692 47.6942 66.5492 47.1308 67.1992 46.3725L68.4992 47.8675C67.7409 48.7775 66.7875 49.4708 65.6392 49.9475C64.5125 50.4242 63.2667 50.6625 61.9017 50.6625ZM79.6635 50.6625C78.0601 50.6625 76.8251 50.2292 75.9585 49.3625C75.0918 48.4958 74.6585 47.2717 74.6585 45.69V29.6675H76.966V45.56C76.966 46.5567 77.2151 47.3258 77.7135 47.8675C78.2335 48.4092 78.9701 48.68 79.9235 48.68C80.9418 48.68 81.7868 48.3875 82.4585 47.8025L83.271 49.46C82.816 49.8717 82.2635 50.175 81.6135 50.37C80.9851 50.565 80.3351 50.6625 79.6635 50.6625ZM71.6035 35.355V33.4375H82.166V35.355H71.6035ZM102.737 50.695C101.047 50.695 99.4224 50.4242 97.8624 49.8825C96.3241 49.3192 95.1324 48.6042 94.2874 47.7375L95.2299 45.885C96.0316 46.665 97.1041 47.3258 98.4474 47.8675C99.8124 48.3875 101.242 48.6475 102.737 48.6475C104.167 48.6475 105.327 48.4742 106.215 48.1275C107.125 47.7592 107.786 47.2717 108.197 46.665C108.631 46.0583 108.847 45.3867 108.847 44.65C108.847 43.7617 108.587 43.0467 108.067 42.505C107.569 41.9633 106.908 41.5408 106.085 41.2375C105.262 40.9125 104.352 40.6308 103.355 40.3925C102.358 40.1542 101.362 39.905 100.365 39.645C99.3683 39.3633 98.4474 38.995 97.6024 38.54C96.7791 38.085 96.1074 37.4892 95.5874 36.7525C95.0891 35.9942 94.8399 35.0083 94.8399 33.795C94.8399 32.6683 95.1324 31.6392 95.7174 30.7075C96.3241 29.7542 97.2449 28.9958 98.4799 28.4325C99.7149 27.8475 101.297 27.555 103.225 27.555C104.503 27.555 105.771 27.7392 107.027 28.1075C108.284 28.4542 109.367 28.9417 110.277 29.57L109.465 31.4875C108.49 30.8375 107.45 30.3608 106.345 30.0575C105.262 29.7542 104.211 29.6025 103.192 29.6025C101.827 29.6025 100.701 29.7867 99.8124 30.155C98.9241 30.5233 98.2633 31.0217 97.8299 31.65C97.4183 32.2567 97.2124 32.95 97.2124 33.73C97.2124 34.6183 97.4616 35.3333 97.9599 35.875C98.4799 36.4167 99.1516 36.8392 99.9749 37.1425C100.82 37.4458 101.741 37.7167 102.737 37.955C103.734 38.1933 104.72 38.4533 105.695 38.735C106.692 39.0167 107.602 39.385 108.425 39.84C109.27 40.2733 109.942 40.8583 110.44 41.595C110.96 42.3317 111.22 43.2958 111.22 44.4875C111.22 45.5925 110.917 46.6217 110.31 47.575C109.703 48.5067 108.772 49.265 107.515 49.85C106.28 50.4133 104.687 50.695 102.737 50.695ZM121.368 50.6625C119.764 50.6625 118.529 50.2292 117.663 49.3625C116.796 48.4958 116.363 47.2717 116.363 45.69V29.6675H118.67V45.56C118.67 46.5567 118.919 47.3258 119.418 47.8675C119.938 48.4092 120.674 48.68 121.628 48.68C122.646 48.68 123.491 48.3875 124.163 47.8025L124.975 49.46C124.52 49.8717 123.968 50.175 123.318 50.37C122.689 50.565 122.039 50.6625 121.368 50.6625ZM113.308 35.355V33.4375H123.87V35.355H113.308ZM139.868 50.5V46.73L139.771 46.1125V39.8075C139.771 38.3558 139.359 37.24 138.536 36.46C137.734 35.68 136.532 35.29 134.928 35.29C133.823 35.29 132.772 35.4742 131.776 35.8425C130.779 36.2108 129.934 36.6983 129.241 37.305L128.201 35.5825C129.067 34.8458 130.107 34.2825 131.321 33.8925C132.534 33.4808 133.812 33.275 135.156 33.275C137.366 33.275 139.067 33.8275 140.258 34.9325C141.472 36.0158 142.078 37.6733 142.078 39.905V50.5H139.868ZM133.986 50.6625C132.707 50.6625 131.592 50.4567 130.638 50.045C129.707 49.6117 128.992 49.0267 128.493 48.29C127.995 47.5317 127.746 46.665 127.746 45.69C127.746 44.8017 127.952 44 128.363 43.285C128.797 42.5483 129.49 41.9633 130.443 41.53C131.418 41.075 132.718 40.8475 134.343 40.8475H140.226V42.57H134.408C132.762 42.57 131.613 42.8625 130.963 43.4475C130.335 44.0325 130.021 44.7583 130.021 45.625C130.021 46.6 130.4 47.38 131.158 47.965C131.917 48.55 132.978 48.8425 134.343 48.8425C135.643 48.8425 136.759 48.55 137.691 47.965C138.644 47.3583 139.337 46.4917 139.771 45.365L140.291 46.9575C139.857 48.0842 139.099 48.9833 138.016 49.655C136.954 50.3267 135.611 50.6625 133.986 50.6625ZM148.346 50.5V33.4375H150.556V38.085L150.328 37.2725C150.805 35.9725 151.606 34.9867 152.733 34.315C153.86 33.6217 155.257 33.275 156.926 33.275V35.5175C156.839 35.5175 156.752 35.5175 156.666 35.5175C156.579 35.4958 156.492 35.485 156.406 35.485C154.607 35.485 153.199 36.0375 152.181 37.1425C151.162 38.2258 150.653 39.775 150.653 41.79V50.5H148.346ZM167.261 50.6625C165.658 50.6625 164.423 50.2292 163.556 49.3625C162.689 48.4958 162.256 47.2717 162.256 45.69V29.6675H164.564V45.56C164.564 46.5567 164.813 47.3258 165.311 47.8675C165.831 48.4092 166.568 48.68 167.521 48.68C168.539 48.68 169.384 48.3875 170.056 47.8025L170.869 49.46C170.414 49.8717 169.861 50.175 169.211 50.37C168.583 50.565 167.933 50.6625 167.261 50.6625ZM159.201 35.355V33.4375H169.764V35.355H159.201ZM181.714 50.6625C179.937 50.6625 178.377 50.2942 177.034 49.5575C175.69 48.7992 174.64 47.77 173.881 46.47C173.123 45.1483 172.744 43.6425 172.744 41.9525C172.744 40.2625 173.101 38.7675 173.816 37.4675C174.553 36.1675 175.55 35.1492 176.806 34.4125C178.085 33.6542 179.515 33.275 181.096 33.275C182.7 33.275 184.119 33.6433 185.354 34.38C186.61 35.095 187.596 36.1133 188.311 37.435C189.026 38.735 189.384 40.2408 189.384 41.9525C189.384 42.0608 189.373 42.18 189.351 42.31C189.351 42.4183 189.351 42.5375 189.351 42.6675H174.499V40.945H188.116L187.206 41.6275C187.206 40.3925 186.935 39.2983 186.394 38.345C185.874 37.37 185.159 36.6117 184.249 36.07C183.339 35.5283 182.288 35.2575 181.096 35.2575C179.926 35.2575 178.875 35.5283 177.944 36.07C177.012 36.6117 176.286 37.37 175.766 38.345C175.246 39.32 174.986 40.4358 174.986 41.6925V42.05C174.986 43.35 175.268 44.4983 175.831 45.495C176.416 46.47 177.218 47.2392 178.236 47.8025C179.276 48.3442 180.457 48.615 181.779 48.615C182.819 48.615 183.783 48.4308 184.671 48.0625C185.581 47.6942 186.361 47.1308 187.011 46.3725L188.311 47.8675C187.553 48.7775 186.6 49.4708 185.451 49.9475C184.325 50.4242 183.079 50.6625 181.714 50.6625ZM200.873 50.6625C199.248 50.6625 197.785 50.2942 196.485 49.5575C195.207 48.8208 194.2 47.8025 193.463 46.5025C192.726 45.1808 192.358 43.6642 192.358 41.9525C192.358 40.2192 192.726 38.7025 193.463 37.4025C194.2 36.1025 195.207 35.095 196.485 34.38C197.785 33.6433 199.248 33.275 200.873 33.275C202.368 33.275 203.7 33.6108 204.87 34.2825C206.062 34.9542 207.005 35.94 207.698 37.24C208.413 38.5183 208.77 40.0892 208.77 41.9525C208.77 43.7942 208.424 45.365 207.73 46.665C207.037 47.965 206.095 48.9617 204.903 49.655C203.733 50.3267 202.39 50.6625 200.873 50.6625ZM201.035 48.615C202.249 48.615 203.332 48.3442 204.285 47.8025C205.26 47.2392 206.019 46.4592 206.56 45.4625C207.124 44.4442 207.405 43.2742 207.405 41.9525C207.405 40.6092 207.124 39.4392 206.56 38.4425C206.019 37.4458 205.26 36.6767 204.285 36.135C203.332 35.5717 202.249 35.29 201.035 35.29C199.844 35.29 198.771 35.5717 197.818 36.135C196.865 36.6767 196.106 37.4458 195.543 38.4425C194.98 39.4392 194.698 40.6092 194.698 41.9525C194.698 43.2742 194.98 44.4442 195.543 45.4625C196.106 46.4592 196.865 47.2392 197.818 47.8025C198.771 48.3442 199.844 48.615 201.035 48.615ZM207.47 50.5V45.365L207.698 41.92L207.373 38.475V26.385H209.68V50.5H207.47Z" fill="white"/>
</svg>
